<svg xmlns="http://www.w3.org/2000/svg" xmlns:xlink="http://www.w3.org/1999/xlink" viewBox="0 0 100.5 100.5"><script xmlns=""/>
  <defs>
    <linearGradient id="linear-gradient" x1="50.25" x2="50.25" y1=".25" y2="100.25" gradientUnits="userSpaceOnUse">
      <stop offset="0" stop-color="#fff"/>
      <stop offset=".5" stop-color="#e4e4e9"/>
    </linearGradient>
    <linearGradient id="linear-gradient-2" x1="8367.79" x2="8425.61" y1="-7678.97" y2="-7678.97" gradientTransform="rotate(-90 8087.89 358.17)" gradientUnits="userSpaceOnUse">
      <stop offset="0" stop-color="#e6e7e8"/>
      <stop offset=".58" stop-color="#6851a1" stop-opacity="0"/>
    </linearGradient>
    <linearGradient id="New_Gradient_Swatch" x1="6110.91" x2="6142.37" y1="-5395.6" y2="-5395.6" gradientTransform="matrix(0 1 1 0 5446.33 -6062.04)" gradientUnits="userSpaceOnUse">
      <stop offset="0" stop-color="#40489d"/>
      <stop offset="1" stop-color="#5663ad" stop-opacity="0"/>
    </linearGradient>
    <linearGradient id="linear-gradient-3" x1="8273.17" x2="8330.99" y1="-4319.39" y2="-4319.39" gradientTransform="rotate(-90 6361.03 1991.3)" gradientUnits="userSpaceOnUse">
      <stop offset="0" stop-color="#140c2f"/>
      <stop offset=".51" stop-color="#5663ad" stop-opacity="0"/>
    </linearGradient>
    <linearGradient id="linear-gradient-4" x1="8273.7" x2="8332.27" y1="-4318.98" y2="-4318.98" gradientTransform="rotate(-90 6361.03 1991.3)" gradientUnits="userSpaceOnUse">
      <stop offset="0" stop-color="#43279d"/>
      <stop offset="1" stop-color="#5663ad" stop-opacity="0"/>
    </linearGradient>
    <linearGradient id="linear-gradient-5" x1="21.77" x2="80.37" y1="49.24" y2="49.24" gradientUnits="userSpaceOnUse">
      <stop offset="0" stop-color="#43279b"/>
      <stop offset="1" stop-color="#43279b" stop-opacity="0"/>
    </linearGradient>
    <linearGradient xlink:href="#linear-gradient-5" id="linear-gradient-6" x1="8274.49" x2="8332.91" y1="-4319.39" y2="-4319.39" gradientTransform="rotate(-90 6361.03 1991.3)"/>
    <linearGradient id="linear-gradient-7" x1="8276.32" x2="8333.72" y1="-4317.88" y2="-4317.88" gradientTransform="matrix(0 -.97 1.01 0 4425.4 8089.84)" gradientUnits="userSpaceOnUse">
      <stop offset="0" stop-color="#d5d0e5" stop-opacity=".8"/>
      <stop offset="1" stop-color="#f5e3e6" stop-opacity="0"/>
    </linearGradient>
    <linearGradient id="linear-gradient-8" x1="8274.96" x2="8332.36" y1="-4318.33" y2="-4318.33" gradientTransform="matrix(0 -.98 1.03 0 4482.85 8199.07)" gradientUnits="userSpaceOnUse">
      <stop offset="0" stop-color="#ffd8cb" stop-opacity=".4"/>
      <stop offset="1" stop-color="#f5e3e6" stop-opacity="0"/>
    </linearGradient>
    <linearGradient id="linear-gradient-9" x1="8251.83" x2="8352.33" y1="-4319.47" y2="-4319.47" gradientTransform="rotate(-90 6361.03 1991.3)" gradientUnits="userSpaceOnUse">
      <stop offset="0" stop-color="#bfc2da"/>
      <stop offset=".6" stop-color="#bfc2da" stop-opacity="0"/>
    </linearGradient>
    <style>
      .cls-12{opacity:.97;mix-blend-mode:lighten}
    </style>
  </defs>
  <g style="isolation:isolate">
    <g id="Layer_2" data-name="Layer 2">
      <g id="Layer_1-2" data-name="Layer 1">
        <rect width="100" height="100" x=".25" y=".25" rx="50" style="fill:url(#linear-gradient)"/>
        <circle cx="50.73" cy="49.35" r="28.91" style="opacity:.37;fill:url(#linear-gradient-2)"/>
        <g style="opacity:.44">
          <path d="M21.74 51.34c0-.83.05-1.65.12-2.47a29 29 0 0 0 57.75 0c.07.82.11 1.64.11 2.47a29 29 0 1 1-58 0Z" style="fill:url(#New_Gradient_Swatch)"/>
        </g>
        <circle cx="50.32" cy="50.25" r="28.91" style="stroke-width:1.17px;stroke:url(#linear-gradient-3);fill:none;stroke-miterlimit:10"/>
        <circle cx="50.73" cy="49.35" r="28.91" style="stroke-width:.75px;stroke:url(#linear-gradient-4);fill:none;stroke-miterlimit:10"/>
        <path d="M80 49.58c0 4.76-3 8-5 12s-3.35 8.8-7 11.42c-3.48 2.51-4.68 4.46-9.08 5.22a72.26 72.26 0 0 1-7.82.23c-4 0-6.83-3-10.27-4.48-3.88-1.63-8.26-1.86-11.06-4.92s-5.2-4.05-6.46-8.29c-.77-2.61-1.15-8.32-1.15-11.18a28.91 28.91 0 0 1 1.5-9.21 45.74 45.74 0 0 1 5.56-9.92c2.76-3.73 5-4.84 9.24-6.89C42.27 21.71 46.55 20 51.07 20c3.36 0 6.59 1.27 9.59 2.32 3.68 1.28 6.46 4.29 9.47 7.05 2.81 2.59 5.54 4.55 7.17 8.06A28.78 28.78 0 0 1 80 49.58Z" style="opacity:.66;stroke:url(#linear-gradient-5);stroke-width:.78px;fill:none;stroke-miterlimit:10"/>
        <path d="M49.79 19.82a33 33 0 0 1 8.38.8c3.9 1.1 8.19 2.63 11.24 5.14 3.21 2.64 5.12 6.33 7 10.12a28.8 28.8 0 0 1 2.88 12.58 34.14 34.14 0 0 1-3.5 15 24.13 24.13 0 0 1-6.66 7.63 26.51 26.51 0 0 1-9 5.2 34.42 34.42 0 0 1-9.71 1.06c-4.67 0-9.08.6-13-1.37-4.48-2.25-7-5.62-9.81-9.76-2-3-2.37-5-3.14-8.72-.39-1.9-3-7-3-9.06a29.22 29.22 0 0 1 1.4-8.92c1-3 1.61-6.84 3.43-9.31 2.14-2.9 5.6-4.29 8.65-6.22a28.6 28.6 0 0 1 7.38-3.33 25.18 25.18 0 0 1 7.46-.84Z" style="opacity:.68;stroke:url(#linear-gradient-6);stroke-width:.78px;fill:none;stroke-miterlimit:10"/>
        <ellipse cx="50.6" cy="49.47" rx="28.06" ry="27.78" style="stroke:url(#linear-gradient-7);stroke-width:.5px;fill:none;stroke-miterlimit:10" transform="rotate(-53.37 50.6 49.47)"/>
        <ellipse cx="50.99" cy="50.07" rx="28.42" ry="28.16" style="stroke:url(#linear-gradient-8);stroke-width:.5px;fill:none;stroke-miterlimit:10" transform="rotate(-80.96 51 50.06)"/>
        <circle cx="50.25" cy="50.25" r="49" style="stroke-width:2.5px;stroke:url(#linear-gradient-9);fill:none;stroke-miterlimit:10"/>
      </g>
    </g>
  </g>
<script xmlns=""/></svg>